<svg width="250" height="251" viewBox="0 0 250 251" fill="none" xmlns="http://www.w3.org/2000/svg">
<circle cx="125" cy="125" r="125" fill="#C4C4C4"/>
<path d="M246 154.5L146.5 65L126.5 100.5V249.5C178 249.5 230 215 246 154.5Z" fill="#BBBBBB"/>
<path d="M164.804 130.756C162.112 149.661 144.04 173 125.439 173C106.838 173 88.0922 150.431 85.2083 130.756C82.2712 110.718 81.1709 59 125.439 59C168.841 59 167.688 110.503 164.804 130.756Z" fill="#8A8A8A"/>
<path d="M112 133.5H137C144.5 148.5 132.184 161.766 142.5 176.5C159.655 201 193 199.5 210 216.5C210 216.5 178.498 249.514 126 250C72 250.5 40 216.5 40 216.5C56.6339 199.866 89.7253 201.046 107.5 176.5C118 162 104 148.5 112 133.5Z" fill="#8A8A8A"/>
</svg>
